<svg id="b_logo" enable-background="new 0 0 128 52" viewBox="0 0 128 52" xmlns="http://www.w3.org/2000/svg" xmlns:xlink="http://www.w3.org/1999/xlink"><linearGradient id="logo_lg1" gradientUnits="userSpaceOnUse" x1="19.6244" x2="34.6169" y1="15.0219" y2="40.9898"><stop class="" offset="0" stop-color="#e9e9e9"></stop><stop offset="1" stop-color="#fff"></stop></linearGradient><linearGradient id="logo_lg2" gradientUnits="userSpaceOnUse" x1="3.9433" x2="30.8454" y1="48.3748" y2="32.8429"><stop offset="0" stop-color="#fff"></stop><stop offset="1" stop-color="#ccc"></stop></linearGradient><linearGradient id="logo_lg3" gradientUnits="userSpaceOnUse" x1="6.2" x2="6.2" y1="44.997" y2=".7844"><stop offset="0" stop-color="#ccc"></stop><stop offset="1" stop-color="#fff"></stop></linearGradient><linearGradient id="logo_lg4"><stop offset="0" stop-color="#fff"></stop><stop offset="1" stop-color="#090909"></stop></linearGradient><linearGradient id="logo_lg5" gradientUnits="userSpaceOnUse" x1="6.6685" x2="27.0731" xlink:href="#logo_lg4" y1="50.2508" y2="29.8462"></linearGradient><linearGradient id="logo_lg6" gradientUnits="userSpaceOnUse" x1="6.2" x2="6.2" xlink:href="#logo_lg4" y1="0" y2="44.5419"></linearGradient><path fill="#fff" d="m77.028 9.669c-.614-.012-1.203.238-1.622.686-.438.426-.686 1.011-.686 1.622-.012.632.236 1.241.686 1.685.448.396 1.024.617 1.622.624.611-.001 1.196-.248 1.622-.686.462-.409.715-1.005.686-1.622-.001-.611-.248-1.196-.686-1.622-.409-.463-1.006-.716-1.622-.687zm18.217 9.108c-3.182 0-5.615 1.435-7.237 4.243h-.062v-3.681h-3.556v22.086h3.556v-12.603c0-2.059.624-3.681 1.747-5.053 1.094-1.264 2.696-1.973 4.367-1.934 3.431 0 5.178 2.371 5.178 7.05v12.603h3.494v-13.602c0-2.932-.624-5.178-1.934-6.738-1.31-1.559-3.12-2.371-5.553-2.371zm-20.027 22.711h3.556v-22.149h-3.556zm-11.728-16.534v-.062c1.579-.486 2.959-1.471 3.93-2.808.955-1.348 1.458-2.965 1.435-4.617 0-2.121-.749-3.806-2.371-5.178-1.56-1.31-3.681-1.997-6.426-1.997h-8.861v31.32h9.047c2.932 0 5.303-.873 7.237-2.496s2.87-3.806 2.87-6.488c0-2.184-.686-3.931-1.934-5.241-1.122-1.435-2.807-2.183-4.927-2.433zm-8.61-11.417h4.18c3.993 0 5.989 1.497 5.989 4.554 0 1.747-.562 3.12-1.747 4.118s-2.683 1.497-4.742 1.497h-3.744v-10.17zm9.92 23.084c-1.185.998-2.87 1.497-4.991 1.497h-4.992v-11.23h4.242c5.053 0 7.487 1.809 7.487 5.49.062 1.872-.499 3.245-1.746 4.243zm59.519-14.162h-.062c-1.435-2.371-3.618-3.619-6.612-3.619-3.057 0-5.553 1.123-7.362 3.307-1.811 2.246-2.746 5.179-2.746 8.984 0 2.184.374 4.118 1.185 5.74.693 1.554 1.82 2.875 3.244 3.806 1.422.882 3.068 1.336 4.742 1.31 3.369 0 5.927-1.435 7.612-4.243h.062v2.433c0 5.802-2.683 8.672-8.173 8.672-2.246 0-3.993-.499-6.177-1.622l-.936 3.057c2.059.998 4.43 1.497 7.175 1.497 7.799 0 11.667-4.118 11.667-12.166l.062-20.339h-3.556v3.182zm0 8.984c0 2.184-.624 3.993-1.934 5.428-1.248 1.373-2.87 2.059-4.867 2.059s-3.494-.749-4.742-2.246c-1.185-1.497-1.747-3.494-1.747-5.865 0-2.87.624-5.054 1.872-6.676s2.932-2.371 5.178-2.371c1.673-.022 3.28.656 4.43 1.872 1.187 1.216 1.839 2.856 1.809 4.554v3.245z"></path><path fill="url(#logo_lg1)" d="m35.284 33.243c0 .514-.028 1.025-.084 1.529-.332 3.071-1.661 5.848-3.662 7.996.252-.28.479-.581.679-.902.154-.245.29-.5.406-.766.042-.087.08-.178.112-.269.038-.087.07-.178.098-.269.031-.084.059-.171.084-.259.024-.091.049-.182.07-.273.004-.01.007-.021.011-.031.021-.091.038-.182.056-.273.018-.094.035-.189.049-.283 0-.004 0-.004 0-.007.014-.087.024-.175.031-.266.021-.206.032-.413.032-.623 0-1.182-.325-2.291-.895-3.235-.129-.22-.273-.43-.43-.63-.185-.238-.385-.462-.602-.668-.539-.521-1.168-.948-1.864-1.249-.301-.133-.616-.241-.937-.322-.003 0-.011-.003-.014-.003l-.115-.04-1.63-.56v-.004l-4.264-1.466c-.014-.004-.032-.004-.042-.007l-.266-.098c-.857-.336-1.567-.965-2.011-1.766l-1.556-3.97-1.784-4.547-.343-.878-.087-.178c-.098-.238-.15-.497-.15-.766 0-.07 0-.14.007-.203.101-1 .951-1.784 1.98-1.784.273 0 .535.056.773.157l7.947 4.075 1.567.801c.829.493 1.602 1.074 2.308 1.728 2.56 2.351 4.239 5.645 4.491 9.329.021.326.035.651.035.98z"></path><path fill="url(#logo_lg2)" d="m33.161 38.546c0 .406-.039.798-.108 1.179-.021.101-.042.203-.066.304-.046.182-.094.357-.154.532-.031.091-.063.182-.098.269-.035.091-.073.178-.112.269-.115.266-.252.521-.406.766-.199.322-.427.623-.679.902-1.158 1.28-5.09 3.564-6.539 4.491l-3.216 1.966c-2.357 1.452-4.586 2.48-7.394 2.55-.133.004-.262.007-.392.007-.182 0-.36-.004-.539-.011-4.757-.182-8.905-2.735-11.298-6.509-1.095-1.724-1.819-3.704-2.064-5.831.514 2.907 3.047 5.11 6.1 5.11 1.07 0 2.074-.269 2.952-.745.007-.003.014-.007.021-.01l.315-.189 1.28-.756 1.63-.965v-.045l.21-.126 14.582-8.64 1.123-.665.112.038c.004 0 .011.003.014.003.322.08.637.189.937.322.696.301 1.326.728 1.864 1.249.217.206.416.43.602.668.157.199.301.409.43.63.568.946.893 2.054.893 3.237z"></path><path fill="url(#logo_lg3)" d="m12.4 9.713-.005 32.161-1.63.966-1.281.755-.316.191c-.005 0-.014.005-.019.01-.879.473-1.883.746-2.954.746-3.055 0-5.583-2.204-6.1-5.11-.024-.134-.043-.272-.057-.406-.019-.254-.033-.502-.038-.756v-36.195c0-1.143.927-2.075 2.075-2.075.43 0 .832.134 1.162.354l6.343 4.144c.033.029.072.053.11.076 1.639 1.119 2.71 3.003 2.71 5.139z"></path><path fill="url(#logo_lg5)" opacity=".08" d="m33.161 38.546c0 .406-.039.798-.108 1.179-.021.101-.042.203-.066.304-.046.182-.094.357-.154.532-.031.091-.063.182-.098.269-.035.091-.073.178-.112.269-.115.266-.252.521-.406.766-.199.322-.427.623-.679.902-1.158 1.28-5.09 3.564-6.539 4.491l-3.216 1.966c-2.357 1.452-4.586 2.48-7.394 2.55-.133.004-.262.007-.392.007-.182 0-.36-.003-.539-.01-4.757-.182-8.905-2.735-11.298-6.509-1.095-1.724-1.819-3.704-2.064-5.831.514 2.907 3.047 5.11 6.1 5.11 1.07 0 2.074-.269 2.952-.745.007-.003.014-.007.021-.01l.315-.189 1.28-.756 1.63-.965v-.046l.21-.126 14.582-8.64 1.123-.665.112.038c.003 0 .011.003.014.003.322.08.637.189.937.322.696.301 1.326.728 1.864 1.249.217.206.416.43.602.668.157.199.301.409.43.63.568.946.893 2.054.893 3.237z"></path><path fill="url(#logo_lg6)" opacity=".05" d="m12.4 9.713-.005 32.161-1.63.966-1.281.755-.316.191c-.005 0-.014.005-.019.01-.879.473-1.883.746-2.954.746-3.055 0-5.583-2.204-6.1-5.11-.024-.134-.043-.272-.057-.406-.019-.254-.033-.502-.038-.756v-36.195c0-1.143.927-2.075 2.075-2.075.43 0 .832.134 1.162.354l6.343 4.144c.033.029.072.053.11.076 1.639 1.119 2.71 3.003 2.71 5.139z"></path></svg>