<svg xmlns="http://www.w3.org/2000/svg" width="123.352" height="33.71" viewBox="0 0 123.352 33.71" class="logo-3oeRIY">
  <g fill="currentColor">
    <path id="Path_1" data-name="Path 1" d="M-872.752-493.315l-2.057-1.886-2.176-2.006.9,3.11h-19.278a3.489,3.489,0,0,1-3.485-3.485v-22.78a3.49,3.49,0,0,1,3.485-3.485h22.78a3.515,3.515,0,0,1,3.5,3.485v30.226Zm-18.6-20.893a22.444,22.444,0,0,0-2.448,9.826,6.173,6.173,0,0,0,5.185,2.567s.629-.748,1.139-1.394a5.316,5.316,0,0,1-2.975-1.989s.17.119.476.289c.017,0,.034.017.068.034.05.033.1.05.153.085a9.848,9.848,0,0,0,1.241.578,12.894,12.894,0,0,0,2.5.732,11.916,11.916,0,0,0,4.4.017,12.222,12.222,0,0,0,2.465-.732,9.719,9.719,0,0,0,1.956-1,5.393,5.393,0,0,1-3.077,2.006c.509.629,1.121,1.36,1.121,1.36a6.226,6.226,0,0,0,5.185-2.551,22.443,22.443,0,0,0-2.448-9.825,8.391,8.391,0,0,0-4.759-1.768l-.239.272a11.171,11.171,0,0,1,4.233,2.142,14.146,14.146,0,0,0-5.117-1.615,14.4,14.4,0,0,0-3.434.034,1.676,1.676,0,0,0-.289.034,13.294,13.294,0,0,0-3.858,1.071c-.629.272-1,.475-1,.475a11.154,11.154,0,0,1,4.454-2.21l-.17-.2h-.019A8.495,8.495,0,0,0-891.35-514.208Zm76.058,7.769v-5.151c0-3.486,3.111-5.185,6.239-5.185s6.273,1.716,6.273,5.185v5.151c0,3.451-3.11,5.185-6.239,5.185C-812.164-501.254-815.292-502.988-815.292-506.439Zm3.808-5.151v5.151c0,1.122,1.224,1.649,2.448,1.649,1.207,0,2.431-.561,2.431-1.649v-5.151c0-1.174-1.258-1.7-2.5-1.7C-810.294-513.29-811.484-512.695-811.484-511.59Zm-16.235,5.168v-5.2c0-3.4,2.992-5.151,6.018-5.151a5.6,5.6,0,0,1,5.3,3.468l-3.11,1.258c-1.021-1.87-4.387-1.445-4.387.425v5.2c0,1.819,3.417,2.329,4.234.238l3.332,1.53a6.071,6.071,0,0,1-5.441,3.383C-824.727-501.271-827.719-502.988-827.719-506.422Zm-12.359,2.414,2.414-2.261c1.513,1.836,4.846,1.921,4.947.306.034-.85-1.343-1.343-2.584-1.513-2.431-.374-4.641-1.922-4.641-4.794,0-2.958,2.687-4.522,5.457-4.522a6.2,6.2,0,0,1,5.152,2.414l-2.5,1.921c-1.581-1.683-4.284-1.615-4.352.136.05.732.833,1.156,2.005,1.411,2.687.493,5.372,1.428,5.2,5.117-.119,2.924-3.2,4.522-5.966,4.522A6.618,6.618,0,0,1-840.078-504.008Zm58.718,2.55h-5.661v-3.587h5.781c1.309,0,1.9-.663,1.9-1.649v-4.71c0-.986-.629-1.6-1.9-1.6h-2.006v6.154L-787-510.23v-6.341h5.644c3.026,0,5.865,1.547,5.865,5.083v5.066c0,3.448-2.808,4.964-5.815,4.964Zm-72.13,0h-5.644v-3.587h5.78c1.309,0,1.9-.663,1.9-1.649v-4.71c0-.986-.629-1.6-1.9-1.6h-2.006v6.154l-3.758-3.383v-6.341h5.645c3.026,0,5.864,1.547,5.847,5.083v5.066c0,3.448-2.807,4.964-5.814,4.964Zm60.774,0-3.5-4.793h-.68v4.793h-3.859v-15.1h6.035c3.11,0,5.524,1.428,5.61,4.964,0,2.787-1.139,4.369-2.958,4.946l4.114,5.185Zm-4.181-8.092h2.244a1.727,1.727,0,1,0,0-3.451H-796.9Zm-48.671,8.076v-15.1h3.808v15.1Zm-37.009-6.358a1.8,1.8,0,0,1,1.733-1.87,1.807,1.807,0,0,1,1.734,1.87,1.8,1.8,0,0,1-1.734,1.87A1.807,1.807,0,0,1-882.578-507.833Zm-6.206,0a1.8,1.8,0,0,1,1.734-1.87,1.785,1.785,0,0,1,1.734,1.87,1.8,1.8,0,0,1-1.734,1.87A1.807,1.807,0,0,1-888.783-507.833Z" transform="translate(898.847 523.847)"/>
  </g>
</svg>
